<?xml version="1.0" encoding="UTF-8"?>
<svg version="1.1" xmlns="http://www.w3.org/2000/svg" width="1024" height="1024">
<path d="M0 0 C337.92 0 675.84 0 1024 0 C1024 337.92 1024 675.84 1024 1024 C686.08 1024 348.16 1024 0 1024 C0 686.08 0 348.16 0 0 Z " fill="#000000" transform="translate(0,0)"/>
<path d="M0 0 C0.33 0 0.66 0 1 0 C1 162.36 1 324.72 1 492 C-158.06 492 -317.12 492 -481 492 C-481 491.34 -481 490.68 -481 490 C-479.79730469 489.96261719 -478.59460938 489.92523437 -477.35546875 489.88671875 C-458.55815832 489.20134162 -439.62127151 487.74322231 -421.22265625 483.6875 C-416.87490542 482.75997982 -412.49980636 482.13633685 -408.09765625 481.52734375 C-404.34222254 480.88802023 -400.68405857 479.95519059 -397 479 C-395.65535815 478.66501563 -394.31030677 478.33167076 -392.96484375 478 C-392.30033203 477.835 -391.63582031 477.67 -390.95117188 477.5 C-389.60504425 477.16575299 -388.25868823 476.83242448 -386.91210938 476.5 C-383.65541625 475.68978286 -380.43899591 474.83424879 -377.21875 473.8828125 C-373.98932595 472.99707241 -371.32981784 472.83756986 -368 473 C-368 472.34 -368 471.68 -368 471 C-366.32550781 470.5978125 -366.32550781 470.5978125 -364.6171875 470.1875 C-348.65356237 466.2341745 -333.20619945 460.83196566 -318.09765625 454.33203125 C-315.61365846 453.26388088 -313.1227853 452.22464146 -310.62109375 451.19921875 C-281.35114065 439.15284277 -253.34472322 423.52227073 -227 406 C-226.37802734 405.58669434 -225.75605469 405.17338867 -225.11523438 404.74755859 C-214.40834249 397.59438635 -204.14040096 389.93184223 -194 382 C-192.59621094 380.90365234 -192.59621094 380.90365234 -191.1640625 379.78515625 C-175.06771406 367.04872521 -160.14990703 353.23273203 -145.625 338.75 C-145.1027182 338.23039703 -144.5804364 337.71079407 -144.04232788 337.17544556 C-138.14261605 331.29868394 -132.37617895 325.36676171 -127 319 C-126.09922732 317.95549713 -125.19819993 316.91121386 -124.296875 315.8671875 C-118.11650409 308.6061996 -112.14206319 301.21471068 -106.30566406 293.67480469 C-105.10055476 292.12898385 -103.87536356 290.59887487 -102.6484375 289.0703125 C-89.34513023 272.29657725 -78.03653868 253.97434402 -67.39599609 235.42919922 C-66.13693523 233.23828359 -64.8623525 231.05743528 -63.58203125 228.87890625 C-55.35345591 214.73800019 -48.17766559 199.8594215 -42.10546875 184.66796875 C-40.84223991 181.61925746 -39.42528636 178.66372769 -38 175.6875 C-35.52921577 170.40469792 -33.58703815 165.05026903 -31.82202148 159.50317383 C-30.59693948 155.68305194 -29.1978533 152.03631646 -27.5625 148.375 C-20.62473026 132.11460217 -17.12272842 114.13357429 -13 97 C-12.70996094 95.80793945 -12.70996094 95.80793945 -12.4140625 94.59179688 C-4.92925043 63.59491212 -2.00120358 31.75338821 0 0 Z " fill="#FEFEFE" transform="translate(1023,532)"/>
<path d="M0 0 C160.38 0 320.76 0 486 0 C486 163.02 486 326.04 486 494 C485.67 494 485.34 494 485 494 C484.95512451 493.2378418 484.91024902 492.47568359 484.86401367 491.69042969 C484.00625228 477.38942164 483.02549233 463.12327291 481.5 448.875 C481.38164795 447.75834961 481.2632959 446.64169922 481.14135742 445.49121094 C480.34186372 438.2778806 479.25665688 431.14678375 478 424 C477.84499023 423.08895508 477.68998047 422.17791016 477.53027344 421.23925781 C475.76296512 410.87930393 473.84606906 400.67210539 470.9921875 390.55078125 C470.13266666 387.47477949 469.34990481 384.39079868 468.60180664 381.28613281 C464.96901977 366.24903652 460.41297871 351.48961985 455 337 C454.51009084 335.66939075 454.02052146 334.33865636 453.53125 333.0078125 C450.54511744 324.92216642 447.43621605 316.90699178 444 309 C443.70287109 308.31550781 443.40574219 307.63101562 443.09960938 306.92578125 C438.03758223 295.32405433 432.57554606 283.96359176 426.81030273 272.69433594 C426.31473877 271.72012695 425.8191748 270.74591797 425.30859375 269.7421875 C424.86314209 268.8744873 424.41769043 268.00678711 423.95874023 267.11279297 C423 265 423 265 423 263 C422.34 263 421.68 263 421 263 C420.70609375 262.35417969 420.4121875 261.70835937 420.109375 261.04296875 C415.24965823 250.83477059 409.15300414 241.46501774 403 232 C402.61521484 231.40622559 402.23042969 230.81245117 401.83398438 230.20068359 C393.22367 216.95685258 383.88617466 204.31241131 374 192 C373.21496094 191.01902344 372.42992187 190.03804687 371.62109375 189.02734375 C367.30854165 183.69477932 362.8378372 178.55725878 358.2109375 173.49609375 C356.07615089 171.08597247 354.10416034 168.60098826 352.125 166.0625 C347.58106771 160.44089173 342.54592391 155.35891407 337.4375 150.25 C336.63393066 149.44570557 335.83036133 148.64141113 335.00244141 147.81274414 C326.80719978 139.63581947 326.80719978 139.63581947 317.77124023 132.43066406 C317.18673096 131.95854492 316.60222168 131.48642578 316 131 C316 130.34 316 129.68 316 129 C315.46761719 128.77957031 314.93523437 128.55914062 314.38671875 128.33203125 C311.16159936 126.53208737 308.55854688 124.1276522 305.8125 121.6875 C286.4318588 104.78613763 265.07281456 90.14806929 243.3125 76.5 C242.30533936 75.86771484 242.30533936 75.86771484 241.27783203 75.22265625 C238.24758615 73.33696384 235.23787487 71.50827589 232 70 C232 69.34 232 68.68 232 68 C231.31164062 67.91234375 230.62328125 67.8246875 229.9140625 67.734375 C226.33912721 66.83345297 223.49395853 65.14226601 220.375 63.25 C214.42062362 59.73272694 208.37240183 56.70501955 202 54 C202 53.34 202 52.68 202 52 C201.41734375 51.85304687 200.8346875 51.70609375 200.234375 51.5546875 C194.06557511 49.86699696 188.61464572 47.47198899 182.95703125 44.5 C176.9064806 41.43076427 170.64574151 39.09620866 164.25 36.875 C163.49589844 36.61074219 162.74179687 36.34648438 161.96484375 36.07421875 C158.98255939 35.03068408 155.99747169 33.99915723 153 33 C153 32.34 153 31.68 153 31 C151.99710938 30.89300781 150.99421875 30.78601563 149.9609375 30.67578125 C145.94471637 30.10045203 142.36122563 28.72128918 138.625 27.1875 C132.31076951 24.70540518 126.06120434 22.92547512 119.44140625 21.47167969 C113.59304394 20.17829187 107.87757173 18.57535866 102.14672852 16.83764648 C100.10008497 16.21722645 98.05066181 15.60700513 96 15 C94.79766724 14.63769287 94.79766724 14.63769287 93.57104492 14.26806641 C85.83244009 12.03254881 78.01462011 10.72184004 70.0625 9.5 C68.66897429 9.28239914 67.27550154 9.06445885 65.88208008 8.84619141 C63.14290133 8.41801694 60.40317465 7.99359672 57.66308594 7.57128906 C54.68033547 7.10610404 51.70287686 6.62138493 48.7265625 6.1171875 C32.60128385 3.44410395 16.28016577 2.32265715 0 1 C0 0.67 0 0.34 0 0 Z " fill="#FDFDFE" transform="translate(538,0)"/>
<path d="M0 0 C0.33 0 0.66 0 1 0 C1.06993164 0.98468262 1.13986328 1.96936523 1.21191406 2.98388672 C2.66198158 23.14286518 4.41955897 43.0860866 8 63 C8.17708496 63.99563965 8.35416992 64.9912793 8.53662109 66.01708984 C10.05242677 74.46071946 11.63561271 82.74937658 14 91 C14.30086435 92.80775761 14.57253934 94.62065498 14.8125 96.4375 C15.70822478 102.0939667 17.26967332 107.42307498 19.04003906 112.85180664 C20.91526767 118.61683047 22.45514721 124.41760022 23.91015625 130.3046875 C25.03130695 134.1061519 26.43094828 137.68180646 27.93188477 141.34521484 C29.72767973 145.80863757 31.31731945 150.34556982 32.9375 154.875 C35.75390938 162.68146558 38.65263262 170.40321494 42 178 C42.25990723 178.59941406 42.51981445 179.19882812 42.78759766 179.81640625 C45.68690035 186.43987936 48.81042821 192.95455718 51.95361328 199.46484375 C52.86927301 201.3631272 53.78042716 203.2635293 54.69140625 205.1640625 C67.63671384 232.07218122 83.4088714 257.48159571 101.5859375 281.15673828 C102.93931392 282.92089435 104.28336436 284.69175028 105.625 286.46484375 C115.64129414 299.65713056 126.43333076 312.12297016 137.6015625 324.34765625 C139.56322958 326.51699166 141.47804802 328.71205146 143.375 330.9375 C150.01799978 338.56988272 157.31793587 345.74251549 165.01953125 352.30078125 C167.32669952 354.28030432 169.56646782 356.3264212 171.8125 358.375 C177.06186031 363.10580648 182.49688766 367.56910697 188 372 C189.14491973 372.93702553 190.28943258 373.87454838 191.43359375 374.8125 C200.65152073 382.32857974 210.18898038 389.28009166 220 396 C220.63405762 396.43554199 221.26811523 396.87108398 221.92138672 397.31982422 C231.33395264 403.76078291 240.98480801 409.78207977 250.76220703 415.65185547 C252.90967986 416.94558719 255.04710809 418.25463535 257.18359375 419.56640625 C267.29213553 425.71287816 277.73672509 430.87257538 288.47363281 435.82714844 C290.85345532 436.93196747 293.22152194 438.05795953 295.5859375 439.1953125 C309.98755102 446.11113118 324.79743466 451.7516792 339.80615234 457.19921875 C341.7353684 457.90340623 343.65916204 458.62241193 345.58203125 459.34375 C365.03178529 466.54223548 385.27942558 471.43597144 405.6328125 475.2890625 C409 476 409 476 412.32421875 476.99609375 C416.75417357 478.20597514 421.14144216 478.83600857 425.6875 479.4375 C427.58088048 479.69419886 429.47410684 479.9520368 431.3671875 480.2109375 C432.3169043 480.34081055 433.26662109 480.47068359 434.24511719 480.60449219 C436.73673849 480.96220457 439.21484685 481.36168856 441.6953125 481.7890625 C457.36430293 484.44465438 473.14946353 485.17734357 489 486 C489 486.33 489 486.66 489 487 C327.63 487 166.26 487 0 487 C0 326.29 0 165.58 0 0 Z " fill="#FEFEFE" transform="translate(0,537)"/>
<path d="M0 0 C161.7 0 323.4 0 490 0 C490 0.33 490 0.66 490 1 C488.92443848 1.06993164 487.84887695 1.13986328 486.74072266 1.21191406 C452.74517924 3.34569148 452.74517924 3.34569148 419.20703125 9.078125 C415.68273021 9.88487388 412.22823289 10.34497045 408.625 10.6875 C392.54653659 12.73384989 376.5487503 17.52518051 361.28125 22.8828125 C356.74517229 24.42723896 352.14022308 25.67474981 347.51171875 26.91015625 C343.81765213 28.05659072 340.29828634 29.44939583 336.71948242 30.90942383 C333.92988771 32.02811667 331.12273056 33.07908269 328.30078125 34.11328125 C316.92314008 38.28611846 305.89003669 42.68720064 295 48 C293.6970293 48.60009592 292.39227034 49.19632117 291.0859375 49.7890625 C266.86824185 60.82515696 243.55426749 74.29278902 221.84960938 89.68847656 C220.0354654 90.97485215 218.21384373 92.24996793 216.390625 93.5234375 C204.4774168 101.8871906 193.15529306 110.91564969 182.09765625 120.375 C179.19521627 122.85116957 176.22759416 125.23961164 173.25 127.625 C168.9182404 131.14573349 164.98656261 134.90672799 161.09375 138.90234375 C159.2302578 140.76931262 157.32553147 142.48580602 155.3125 144.1875 C146.20004921 152.01908421 137.72637808 160.80827436 130 170 C129.12628347 171.0115267 128.25114808 172.02182869 127.375 173.03125 C116.38762846 185.71348204 105.69944162 198.56472036 96.13671875 212.36474609 C95.06018399 213.91342089 93.96803175 215.45120535 92.875 216.98828125 C81.23009778 233.49236142 70.7771214 250.6305256 61.33886719 268.48242188 C60.10254874 270.80716947 58.8425042 273.1166175 57.5703125 275.421875 C52.03983695 285.51413851 47.47322404 295.90368706 43.04785156 306.52099609 C41.78793548 309.50170156 40.46552161 312.45127541 39.13647461 315.40161133 C36.00859085 322.36461999 33.43650466 329.36431013 31.109375 336.6328125 C30.19561936 339.40625392 29.19686805 342.06284946 28.0625 344.75 C21.19591751 361.50113873 15.84325092 380.01172837 13.359375 397.9453125 C13 400 13 400 12 401 C11.66669487 402.53320359 11.38516455 404.0777056 11.125 405.625 C10.36325852 410.07388255 9.48669956 414.48543277 8.55859375 418.90234375 C6.93732692 426.86350091 5.86170456 434.86913315 4.9375 442.9375 C4.85350952 443.65347351 4.76951904 444.36944702 4.6829834 445.1071167 C2.82640413 461.03287997 1.80196717 476.9899969 1 493 C0.67 493 0.34 493 0 493 C0 330.31 0 167.62 0 0 Z " fill="#FDFDFD" transform="translate(0,0)"/>
<path d="M0 0 C6.4229243 -0.02543538 12.84583553 -0.04290272 19.26879883 -0.05493164 C21.452072 -0.05994843 23.63534182 -0.06676337 25.81860352 -0.07543945 C28.96371283 -0.08762147 32.10877757 -0.09325497 35.25390625 -0.09765625 C36.2239711 -0.10281754 37.19403595 -0.10797882 38.1934967 -0.11329651 C39.11392258 -0.11337204 40.03434845 -0.11344757 40.98266602 -0.11352539 C41.78430679 -0.115746 42.58594757 -0.11796661 43.41188049 -0.12025452 C46 0 46 0 49.25471497 0.49900818 C53.52121029 1.06972022 57.64460712 1.14019599 61.94189453 1.12939453 C62.80960983 1.13114685 63.67732513 1.13289917 64.57133484 1.13470459 C67.4251814 1.13908651 70.27896536 1.13619646 73.1328125 1.1328125 C75.13190726 1.13348696 77.13100195 1.13445816 79.13009644 1.13571167 C83.3178587 1.137184 87.5055996 1.13505036 91.69335938 1.13037109 C97.02898947 1.12469629 102.36456901 1.12794147 107.70019722 1.13394356 C111.83033621 1.13758069 115.9604635 1.13639581 120.09060287 1.13381577 C122.05594768 1.13315404 124.0212936 1.13394821 125.98663712 1.13629532 C135.32361705 1.14499427 144.55554597 1.06620892 153.86203003 0.23129272 C160.17796984 -0.23424103 166.51357361 -0.18632495 172.84375 -0.203125 C173.94496941 -0.20736607 173.94496941 -0.20736607 175.06843567 -0.21169281 C178.95708556 -0.22656005 182.84569958 -0.23586685 186.734375 -0.24023438 C189.89725347 -0.24460791 193.05985746 -0.25847365 196.22265625 -0.28125 C221.9381858 -0.46267742 247.85275551 -0.06135187 272 10 C272 10.66 272 11.32 272 12 C272.56332031 12.2475 273.12664062 12.495 273.70703125 12.75 C283.56639126 18.12477888 293.51398724 29.22058596 299 39 C299 39.99 299 40.98 299 42 C300.7325 41.9071875 300.7325 41.9071875 302.5 41.8125 C309.82459177 41.84678046 316.90248917 43.32509849 324 45 C324.7827832 45.18272461 325.56556641 45.36544922 326.37207031 45.55371094 C341.83498864 49.35852599 341.83498864 49.35852599 346.3125 56.25 C347.25968476 58.14181646 348.1582658 60.05896625 349 62 C349.87330616 63.64673274 350.74824908 65.29259873 351.625 66.9375 C352.4280137 68.61963001 353.21954279 70.30728652 354 72 C354.40992188 72.85464844 354.81984375 73.70929688 355.2421875 74.58984375 C358.10955207 80.93900815 360.03994226 87.39071284 361.75 94.125 C361.96076172 94.94790527 362.17152344 95.77081055 362.38867188 96.61865234 C364.9923997 107.33448628 365.30507671 118.06726568 365.375 129.0625 C365.37956207 129.7585434 365.38412415 130.45458679 365.38882446 131.17172241 C365.42069916 144.86904062 363.45087919 157.73159546 360 171 C359.74686035 172.0007959 359.4937207 173.0015918 359.23291016 174.03271484 C357.25903665 181.61144502 357.25903665 181.61144502 355 185 C354.566875 186.59134766 354.566875 186.59134766 354.125 188.21484375 C352.88298091 192.39372049 351.16223566 195.80375154 349 199.5625 C348.60554688 200.25359863 348.21109375 200.94469727 347.8046875 201.65673828 C341.35915891 212.74132459 333.85502354 222.71941156 325 232 C324.43667969 232.63808594 323.87335938 233.27617188 323.29296875 233.93359375 C316.30397472 241.52209517 307.45644296 247.18415482 299 253 C298.113125 253.61101562 297.22625 254.22203125 296.3125 254.8515625 C277.62490583 266.79827449 256.68044264 272.55568051 234.9375 275.421875 C231.22453619 275.75750769 231.22453619 275.75750769 229 277 C225.96754004 277.1119093 222.95885658 277.16414708 219.92578125 277.16796875 C219.00975632 277.17129715 218.09373138 277.17462555 217.14994812 277.17805481 C215.20047508 277.1831289 213.25099331 277.18546299 211.30151367 277.18530273 C208.36947422 277.18745812 205.4378306 277.2055207 202.50585938 277.22460938 C177.89467256 277.29822419 177.89467256 277.29822419 168 274 C168.39201835 268.03861752 169.45822714 263.4745877 172 258 C172.55249984 256.4335355 173.08581208 254.86019541 173.6015625 253.28125 C173.86533691 252.47751953 174.12911133 251.67378906 174.40087891 250.84570312 C174.59858887 250.23662109 174.79629883 249.62753906 175 249 C175.91064209 249.02094727 176.82128418 249.04189453 177.75952148 249.06347656 C202.60907461 249.55993346 225.70305924 249.78873107 245.5 232.5 C247.02373559 231.02411726 248.52582125 229.52538422 250 228 C250.63292969 227.35289062 251.26585937 226.70578125 251.91796875 226.0390625 C268.26008576 208.36215889 275.57980172 182.7395115 274.8515625 159.015625 C274.81455316 157.09118058 274.77945717 155.16669858 274.74609375 153.2421875 C274.69076623 150.24862583 274.62523426 147.2571258 274.52685547 144.26464844 C274.12944266 131.65147342 274.23467842 123.35270818 282 113 C282.99572775 111.12353709 283.95879433 109.22904741 284.875 107.3125 C287.33184806 102.2934163 289.92443677 97.36253487 292.5625 92.4375 C295.96692248 86.06582916 299.14571642 79.64087084 302 73 C302.66 73 303.32 73 304 73 C304.103125 72.0925 304.20625 71.185 304.3125 70.25 C305.0153454 66.9274581 305.91190795 65.57512693 308 63 C306.84588623 63.12117188 305.69177246 63.24234375 304.50268555 63.3671875 C300.17383824 63.82015441 295.84424604 64.26563271 291.5144043 64.70898438 C289.64928784 64.90098876 287.78437238 65.09495705 285.91967773 65.29101562 C261.55829697 67.84918901 261.55829697 67.84918901 257 67 C254.6328125 64.98046875 254.6328125 64.98046875 253.125 62.1875 C244.91265621 49.1285271 231.07680286 40.67345006 217 35 C216.20464844 34.66097656 215.40929687 34.32195312 214.58984375 33.97265625 C198.32415513 27.4712875 181.65529857 27.60360035 164.4375 27.8125 C162.25066036 27.82758837 160.06381053 27.84126935 157.87695312 27.85351562 C152.5844086 27.88615894 147.29225381 27.93602233 142 28 C142.01659227 28.61069651 142.03318455 29.22139301 142.05027962 29.85059547 C142.44923484 44.76721136 142.74633868 59.68330762 142.93261909 74.60395241 C143.02512406 81.82028366 143.1510048 89.03303754 143.35791016 96.24707031 C143.53834818 102.54133006 143.65367467 108.83299932 143.69359291 115.1297735 C143.7169198 118.46171475 143.78050733 121.78043641 143.90314102 125.11107254 C144.6174338 145.3258802 144.6174338 145.3258802 140.24001312 151.47051239 C136.04812712 155.73339698 131.31689594 158.84861996 126.12372971 161.76258469 C123.22345049 163.45246542 120.80030327 165.44732439 118.25 167.625 C117.41082031 168.31851563 116.57164062 169.01203125 115.70703125 169.7265625 C100.80163316 181.97420475 100.80163316 181.97420475 86.8515625 195.25 C85 197 85 197 83 197 C82.67 197.99 82.34 198.98 82 200 C80.609375 201.3671875 80.609375 201.3671875 78.75 202.875 C74.70023082 206.31362219 70.89565194 209.94922762 67.125 213.6875 C66.26793457 214.52547119 66.26793457 214.52547119 65.39355469 215.38037109 C62.70029973 218.06639044 60.39148691 220.38037267 59 224 C58.34 224 57.68 224 57 224 C56.99576806 223.1133903 56.99153612 222.22678061 56.98717594 221.31330395 C56.88374435 199.7120354 56.77508823 178.11079859 56.66066074 156.50958538 C56.60544905 146.06328606 56.5519873 135.61698332 56.50268555 125.1706543 C56.45969558 116.06265174 56.41338108 106.95467309 56.36312145 97.84670764 C56.33663935 93.02685332 56.31179014 88.20700338 56.29092598 83.3871212 C56.27120751 78.84406411 56.24702049 74.30105204 56.21950912 69.75803566 C56.21021858 68.09689281 56.20251537 66.43574014 56.19658089 64.77458191 C56.86421522 42.62423001 56.86421522 42.62423001 47.1875 23.5 C35.39921927 15.00844185 17.02844063 15.97865166 3.24633789 15.23364258 C1 15 1 15 0 14 C-0.07271741 11.64686445 -0.08370868 9.29166332 -0.0625 6.9375 C-0.05347656 5.64714844 -0.04445313 4.35679687 -0.03515625 3.02734375 C-0.02355469 2.02832031 -0.01195312 1.02929688 0 0 Z " fill="#FBFBFB" transform="translate(342,300)"/>
<path d="M0 0 C0.00496522 1.40250692 0.00496522 1.40250692 0.01003075 2.83334732 C0.09130049 25.66454061 0.18369818 48.49566865 0.28752708 71.32677078 C0.33748625 82.3680612 0.38392998 93.40934481 0.421875 104.45068359 C0.45498646 114.0828726 0.49492086 123.71500603 0.54279006 133.3471334 C0.56786624 138.43947046 0.58970139 143.53177155 0.60334396 148.62415314 C0.61633807 153.43402659 0.63857187 158.24377546 0.66738319 163.05357933 C0.67632549 164.80285212 0.68211719 166.55214489 0.68421364 168.30143929 C0.69720729 177.51075288 1.01881612 186.61175794 1.91445923 195.78143311 C1.99432394 196.60458236 2.07418866 197.42773161 2.15647352 198.27582479 C3.15586072 207.64595671 5.10557314 216.47002369 11.91796875 223.3828125 C25.71695659 234.10097567 50.60577405 231.50041653 67 232 C67 236.95 67 241.9 67 247 C61.68791019 247.02524942 56.3758574 247.04311113 51.0637207 247.05493164 C49.26716502 247.0598738 47.47061315 247.06662881 45.67407227 247.07543945 C43.04963218 247.08796134 40.42524637 247.09332883 37.80078125 247.09765625 C36.65093498 247.10539818 36.65093498 247.10539818 35.4778595 247.11329651 C29.3575605 247.1138749 23.26814957 246.82083701 17.15820312 246.50219727 C6.32330901 245.95046835 -4.48509109 245.85373019 -15.33203125 245.8671875 C-17.30718498 245.8665104 -19.28233862 245.86553704 -21.25749207 245.86428833 C-25.36250617 245.86282936 -29.46749826 245.86490635 -33.57250977 245.86962891 C-38.7595119 245.87531452 -43.94646256 245.87195788 -49.13346291 245.86617756 C-77.16410439 245.83472258 -77.16410439 245.83472258 -105.17456055 246.77734375 C-112.61435728 247.15187838 -120.05315224 247.11025931 -127.5 247.0625 C-128.93229001 247.05744984 -130.36458185 247.05289344 -131.796875 247.04882812 C-135.19800418 247.03903225 -138.59886014 247.01942275 -142 247 C-142 242.05 -142 237.1 -142 232 C-138.15463652 231.03865913 -134.9089208 230.78750315 -130.9609375 230.640625 C-129.56114581 230.57665085 -128.16140714 230.51150817 -126.76171875 230.4453125 C-124.57679106 230.34477752 -122.39254626 230.25059265 -120.20654297 230.17675781 C-111.43614818 229.86972421 -103.30241797 229.47729733 -96 224 C-93.91783124 221.6450037 -93.91783124 221.6450037 -93 219 C-92.649375 218.175 -92.29875 217.35 -91.9375 216.5 C-91.628125 215.675 -91.31875 214.85 -91 214 C-90.67387726 213.26272171 -90.34775452 212.52544342 -90.01174927 211.76582336 C-85.46063141 199.32441272 -86.81103494 184.52257068 -86.97012711 171.5193119 C-87.0354485 165.50718832 -87.03920911 159.49484279 -87.0546875 153.48242188 C-87.07824665 145.8781936 -87.1196649 138.27523763 -87.22265625 130.67163086 C-87.30491102 124.47993718 -87.32810985 118.29041689 -87.31283188 112.09822655 C-87.31777114 109.7559385 -87.34401544 107.41358676 -87.39282608 105.07180214 C-87.796276 84.92495389 -87.796276 84.92495389 -81.78869438 77.88787365 C-79.32677923 75.39633954 -76.71961333 73.20931183 -74 71 C-72.77985524 69.67517157 -71.58187651 68.32830049 -70.4375 66.9375 C-61.48306795 56.63060329 -52.03093125 46.87047342 -42.36499023 37.23461914 C-40.30139939 35.17642843 -38.24326325 33.1128902 -36.18554688 31.04882812 C-34.8492791 29.71322066 -33.51270143 28.37792316 -32.17578125 27.04296875 C-31.57349197 26.43865524 -30.9712027 25.83434174 -30.35066223 25.2117157 C-26.63193092 21.51303801 -22.79318572 18.00268863 -18.82006836 14.57852173 C-15.51879417 11.71536936 -12.33525521 8.72304994 -9.13867188 5.74414062 C-2.92595156 0 -2.92595156 0 0 0 Z " fill="#FBFBFB" transform="translate(485,500)"/>
<path d="M0 0 C-0.5464516 3.14007283 -1.21583919 5.80138415 -2.671875 8.63671875 C-3.17074219 9.61995117 -3.17074219 9.61995117 -3.6796875 10.62304688 C-4.03289062 11.30431641 -4.38609375 11.98558594 -4.75 12.6875 C-5.10835937 13.39068359 -5.46671875 14.09386719 -5.8359375 14.81835938 C-6.55309692 16.22559125 -7.27245693 17.63170407 -7.99414062 19.03662109 C-9.34905887 21.68134258 -10.67564264 24.33986841 -12 27 C-12.66666667 28.33333333 -13.33333333 29.66666667 -14 31 C-14.66 31 -15.32 31 -16 31 C-16.27585937 31.70511719 -16.55171875 32.41023438 -16.8359375 33.13671875 C-18.02683155 36.0659984 -19.30875136 38.93753586 -20.625 41.8125 C-21.07101562 42.78832031 -21.51703125 43.76414062 -21.9765625 44.76953125 C-22.31429688 45.50558594 -22.65203125 46.24164063 -23 47 C-23.66 47 -24.32 47 -25 47 C-26.98 41.06 -28.96 35.12 -31 29 C-50.74786872 38.3542536 -68.77131851 50.67310828 -86.83740234 62.87231445 C-89.95691202 64.97101191 -93.09073364 67.04688658 -96.2265625 69.12109375 C-101.37864739 72.55327904 -106.40590163 76.12139828 -111.375 79.8125 C-112.18517578 80.41215576 -112.99535156 81.01181152 -113.83007812 81.62963867 C-128.7666108 92.73035894 -143.14874055 104.50169425 -157.31298828 116.56738281 C-158.98350403 117.98599155 -160.66101042 119.39593802 -162.33984375 120.8046875 C-176.97175619 133.13385889 -190.58578595 146.49583864 -204.125 160 C-204.71203705 160.58435822 -205.2990741 161.16871643 -205.90390015 161.77078247 C-211.62770293 167.47474608 -217.31200989 173.16150291 -222.55908203 179.31396484 C-224.75617217 181.884806 -227.07005595 184.33797298 -229.375 186.8125 C-234.49239848 192.3532677 -239.27360389 198.12186476 -244 204 C-245.41636227 205.70858571 -246.8330355 207.4169137 -248.25 209.125 C-261.59556783 225.44658295 -274.22398757 242.43758536 -285.74951172 260.09179688 C-286.98000153 261.96948301 -288.22500994 263.83680704 -289.47265625 265.703125 C-302.08333186 284.71310409 -313.72271846 304.63324511 -324 325 C-324.34321289 325.67804688 -324.68642578 326.35609375 -325.04003906 327.0546875 C-327.07675945 331.0869067 -329.09008867 335.13023242 -331.09326172 339.17919922 C-331.94867636 340.89693815 -332.81956217 342.60694753 -333.69140625 344.31640625 C-337.38119612 351.55727208 -340.46886635 358.8580275 -343.28515625 366.4765625 C-343.72730469 367.65992188 -344.16945313 368.84328125 -344.625 370.0625 C-345.23214844 371.71958984 -345.23214844 371.71958984 -345.8515625 373.41015625 C-347 376 -347 376 -349 377 C-348.38443284 372.67520451 -347.35756601 368.75706528 -345.92578125 364.6328125 C-345.50852783 363.42520264 -345.09127441 362.21759277 -344.66137695 360.97338867 C-344.21212172 359.69046267 -343.7624889 358.40766885 -343.3125 357.125 C-342.85299409 355.80643643 -342.39360334 354.48783272 -341.93432617 353.16918945 C-337.72880258 341.12394988 -333.44051604 329.15361366 -328.375 317.4375 C-328.09760986 316.79385498 -327.82021973 316.15020996 -327.53442383 315.48706055 C-326.13914103 312.3254399 -324.63939498 309.30307642 -322.8984375 306.31640625 C-321.39152035 303.68395222 -320.25667289 301.33511958 -319.25 298.5 C-316.48238538 291.34124879 -312.68456692 284.71642862 -309 278 C-308.18789063 276.50533203 -308.18789063 276.50533203 -307.359375 274.98046875 C-306.41513842 273.24357041 -305.46780825 271.50834761 -304.51635742 269.77539062 C-303.55265037 268.01151656 -302.5965123 266.24346969 -301.65063477 264.4699707 C-298.06116352 257.7710047 -294.16926868 251.33032473 -290.0625 244.9375 C-289.48048828 244.02162109 -288.89847656 243.10574219 -288.29882812 242.16210938 C-284.35611275 235.99261123 -280.24025884 229.96817887 -276 224 C-275.57291748 223.39373779 -275.14583496 222.78747559 -274.70581055 222.1628418 C-263.27003233 205.93133668 -251.48146711 190.00484812 -238.09765625 175.3125 C-236.30492554 173.33615628 -234.55204773 171.3354327 -232.8125 169.3125 C-222.85552412 157.94904546 -212.29271617 147.19030895 -201.625 136.5 C-201.0614682 135.93388 -200.4979364 135.36776001 -199.91732788 134.78448486 C-193.79346929 128.63846703 -187.64057983 122.5936249 -181 117 C-179.87041988 116.02682328 -178.74149739 115.05288267 -177.61328125 114.078125 C-174.68020296 111.56205336 -171.74249626 109.05139437 -168.80371094 106.54199219 C-167.08795684 105.07519428 -165.37582907 103.60425967 -163.6640625 102.1328125 C-156.30348498 95.82691804 -148.7412568 89.83208241 -141 84 C-140.24235352 83.42701172 -139.48470703 82.85402344 -138.70410156 82.26367188 C-111.35171505 61.58496579 -83.19640117 42.81601384 -53.57373047 25.52050781 C-50.02658865 23.4249283 -46.51938264 21.26479939 -43.01586914 19.09716797 C-41 18 -41 18 -39 18 C-39 17.34 -39 16.68 -39 16 C-40.07701172 15.61521484 -40.07701172 15.61521484 -41.17578125 15.22265625 C-44.17140001 13.92579778 -46.54758982 12.35053627 -49.1875 10.4375 C-52.47878323 8.02799361 -52.47878323 8.02799361 -56 6 C-56 5.34 -56 4.68 -56 4 C-50.5974353 3.41961019 -45.19382981 2.85052323 -39.7890625 2.29101562 C-37.95802243 2.09996172 -36.12727849 1.90604371 -34.296875 1.70898438 C-22.8103058 0.47468198 -11.55839669 -0.29427318 0 0 Z " fill="#F6F6F6" transform="translate(630,376)"/>
<path d="M0 0 C2.83419612 0.28463081 5.66714854 0.57750619 8.5 0.875 C9.29148437 0.95363281 10.08296875 1.03226563 10.8984375 1.11328125 C11.68476562 1.19707031 12.47109375 1.28085938 13.28125 1.3671875 C14.34956055 1.47716064 14.34956055 1.47716064 15.43945312 1.58935547 C18 2 18 2 21.56103516 2.92456055 C26.89259857 4.29206137 32.30101391 5.04404972 37.7421875 5.83984375 C38.86456818 6.00746719 39.98694885 6.17509064 41.14334106 6.34779358 C44.72002196 6.88139542 48.29745051 7.4097559 51.875 7.9375 C54.23964207 8.28801541 56.60422599 8.63892339 58.96875 8.99023438 C60.12397659 9.1617804 61.27920319 9.33332642 62.46943665 9.5100708 C65.88063418 10.02001077 69.29029207 10.53945731 72.69995117 11.05957031 C76.62247829 11.6558475 80.54489362 12.20547911 84.48168945 12.69824219 C85.30416168 12.81059708 86.12663391 12.92295197 86.97402954 13.03871155 C88.45162318 13.24054454 89.93208034 13.42303413 91.41513062 13.57981873 C98.02914096 14.53284247 101.12859514 18.49092432 105.08300781 23.43041992 C105.47327148 24.00381104 105.86353516 24.57720215 106.265625 25.16796875 C108.87169289 28.86921896 111.7210133 32.27271672 114.6875 35.6875 C118.05128428 39.64682387 121.35389124 43.65105384 124.625 47.6875 C128.20166313 52.08514096 131.94324823 56.29268157 135.76171875 60.48046875 C138.02847158 63.03204917 140.17540087 65.65171532 142.3125 68.3125 C146.32593235 73.29029066 150.59558447 77.96890568 155.01489258 82.58520508 C157.51175816 85.22693578 159.63301684 87.60300592 161 91 C160.34 91 159.68 91 159 91 C158.79375 91.78375 158.5875 92.5675 158.375 93.375 C156.82940899 97.44973993 154.75885055 100.861619 152.4375 104.53515625 C150.33646071 108.13775352 148.95321818 110.8538454 149.125 115.0625 C149 118 149 118 147.1875 120.375 C145 122 145 122 142 122 C141.89042969 122.90621094 141.78085937 123.81242187 141.66796875 124.74609375 C140.74299978 131.8525627 139.54257537 138.29684675 137 145 C135.35 144.67 133.7 144.34 132 144 C132 143.34 132 142.68 132 142 C130.865625 141.731875 129.73125 141.46375 128.5625 141.1875 C127.386875 140.795625 126.21125 140.40375 125 140 C124.67 139.01 124.34 138.02 124 137 C126.83156516 131.96077386 130.61963117 128.06911474 135.4375 124.9375 C138.31723482 123.04136091 138.31723482 123.04136091 139.3984375 119.92578125 C139.3203048 117.94760326 139.16440683 115.97288197 139 114 C142 112 142 112 145 112 C145.23460937 111.18273437 145.46921875 110.36546875 145.7109375 109.5234375 C147.26733657 105.26928005 149.36169958 101.53626604 151.625 97.625 C152.25535156 96.52091797 152.25535156 96.52091797 152.8984375 95.39453125 C153.92752764 93.5936235 154.96310756 91.79642682 156 90 C155.26604004 89.89115479 154.53208008 89.78230957 153.77587891 89.67016602 C145.04631697 88.35354773 136.35078894 86.87768595 127.65771484 85.34057617 C125.34389494 84.93200754 123.02939509 84.52744894 120.71484375 84.12304688 C119.23433268 83.86221929 117.75386233 83.60116039 116.2734375 83.33984375 C115.58599457 83.22003647 114.89855164 83.10022919 114.1902771 82.97679138 C111.36661863 82.47445781 108.72635761 81.90878587 106 81 C104.30506414 80.78891674 102.60934624 80.58241091 100.91040039 80.40649414 C97.83946882 80.08592791 94.77713569 79.6998693 91.71289062 79.32128906 C89.81495443 79.09651548 87.91493844 78.88893909 86.01367188 78.69433594 C65.04323669 76.49762056 65.04323669 76.49762056 59.0625 69.9375 C57.65965679 67.9925324 56.30331604 66.01301648 55 64 C53.58205949 62.23411468 52.14420361 60.48404753 50.6875 58.75 C49.95789063 57.84765625 49.22828125 56.9453125 48.4765625 56.015625 C41.80548731 47.89248613 34.860257 39.99055972 27.75 32.25 C24.6199851 28.83908633 21.64176212 25.36470264 18.75 21.75 C14.27905895 16.19153275 9.43712835 11.02438055 4.52050781 5.86230469 C3.93495117 5.24516602 3.34939453 4.62802734 2.74609375 3.9921875 C2.21685303 3.43901855 1.6876123 2.88584961 1.14233398 2.31591797 C0 1 0 1 0 0 Z " fill="#FAFAFA" transform="translate(598,232)"/>
<path d="M0 0 C4.73138961 0.84396738 6.76911057 3.80367169 9.6875 7.375 C10.21641846 8.00696289 10.74533691 8.63892578 11.2902832 9.29003906 C15.1848636 13.95718088 19.00963369 18.68235712 22.83984375 23.40234375 C25.78883689 26.94860132 28.88086404 30.35508053 31.98046875 33.76953125 C39 41.52224371 39 41.52224371 39 44 C39.61818604 44.08040527 40.23637207 44.16081055 40.87329102 44.24365234 C52.91799589 45.81086128 64.96180004 47.38349606 77 49 C77 54.44121404 74.40735826 58.02851295 71.75585938 62.59960938 C70.76696658 64.36211388 69.8763558 66.17892021 69 68 C70.27351308 71.82053924 71.62637525 72.23021375 75.0625 74.1875 C75.98160156 74.71730469 76.90070313 75.24710937 77.84765625 75.79296875 C78.55792969 76.19128906 79.26820313 76.58960938 80 77 C80.23074219 76.19175781 80.46148438 75.38351562 80.69921875 74.55078125 C82.31491204 70.14037524 84.46435114 66.24402225 86.8125 62.1875 C87.23853516 61.41212891 87.66457031 60.63675781 88.10351562 59.83789062 C91.34360051 54.23514173 91.34360051 54.23514173 94.82421875 52.98828125 C95.54222656 52.99214844 96.26023437 52.99601562 97 53 C94.95865531 59.69938419 91.5711902 65.35097982 88.0625 71.375 C87.42892578 72.49261719 86.79535156 73.61023438 86.14257812 74.76171875 C85.2231543 76.34533203 85.2231543 76.34533203 84.28515625 77.9609375 C83.72707275 78.92821777 83.16898926 79.89549805 82.59399414 80.89208984 C82.06797607 81.5877002 81.54195801 82.28331055 81 83 C77.03567651 83 75.59212429 81.52775725 72.375 79.25 C60.93985613 71.49921036 48.48964165 67.53309775 34.73193359 66.42089844 C26.70988159 65.72917185 26.70988159 65.72917185 24.5625 63.5234375 C23.75 61.625 23.75 61.625 23.0546875 59.4765625 C19.16644185 50.34638568 8.72112687 42.70114187 1 37 C0.38511719 36.51917969 -0.22976563 36.03835938 -0.86328125 35.54296875 C-5.2361324 32.21558086 -9.9217057 30.06125778 -15 28 C-14.32486248 24.32297984 -12.73128145 21.56289111 -10.83984375 18.359375 C-10.21142578 17.28945313 -9.58300781 16.21953125 -8.93554688 15.1171875 C-8.27619141 14.00601562 -7.61683594 12.89484375 -6.9375 11.75 C-6.27427734 10.62335938 -5.61105469 9.49671875 -4.92773438 8.3359375 C-3.28959303 5.55463277 -1.64686955 2.77614248 0 0 Z " fill="#F8F8F7" transform="translate(620,268)"/>
<path d="M0 0 C2 1.375 2 1.375 4 3 C4 3.66 4 4.32 4 5 C3.34 5 2.68 5 2 5 C1.79375 5.78375 1.5875 6.5675 1.375 7.375 C-0.17059101 11.44973993 -2.24114945 14.861619 -4.5625 18.53515625 C-6.66353929 22.13775352 -8.04678182 24.8538454 -7.875 29.0625 C-8 32 -8 32 -9.8125 34.375 C-12 36 -12 36 -15 36 C-15.16435547 37.35931641 -15.16435547 37.35931641 -15.33203125 38.74609375 C-16.25700022 45.8525627 -17.45742463 52.29684675 -20 59 C-21.65 58.67 -23.3 58.34 -25 58 C-25 57.34 -25 56.68 -25 56 C-26.134375 55.731875 -27.26875 55.46375 -28.4375 55.1875 C-29.613125 54.795625 -30.78875 54.40375 -32 54 C-32.495 52.515 -32.495 52.515 -33 51 C-30.16843484 45.96077386 -26.38036883 42.06911474 -21.5625 38.9375 C-18.68276518 37.04136091 -18.68276518 37.04136091 -17.6015625 33.92578125 C-17.6796952 31.94760326 -17.83559317 29.97288197 -18 28 C-15 26 -15 26 -12 26 C-11.76539063 25.18273437 -11.53078125 24.36546875 -11.2890625 23.5234375 C-9.73266343 19.26928005 -7.63830042 15.53626604 -5.375 11.625 C-4.74464844 10.52091797 -4.74464844 10.52091797 -4.1015625 9.39453125 C-3.07247236 7.5936235 -2.03689244 5.79642682 -1 4 C-3.97 3.67 -6.94 3.34 -10 3 C-10 2.67 -10 2.34 -10 2 C-2.25 1.875 -2.25 1.875 0 3 C0 2.01 0 1.02 0 0 Z " fill="#F2F1F0" transform="translate(755,318)"/>
<path d="M0 0 C5 5 5 5 6.77734375 7.08129883 C9.59956243 9.51757042 11.64866864 9.85205016 15.3125 10.44921875 C16.55386719 10.65740234 17.79523437 10.86558594 19.07421875 11.08007812 C20.36972656 11.28052734 21.66523437 11.48097656 23 11.6875 C24.89685547 12.00557617 24.89685547 12.00557617 26.83203125 12.33007812 C33.65924747 13.44451043 40.43730448 14.30733964 47.34082031 14.75878906 C51.63016124 15.14786993 55.80546379 16.04416542 60 17 C60 17.33 60 17.66 60 18 C59.32453125 17.98839844 58.6490625 17.97679687 57.953125 17.96484375 C57.06109375 17.95582031 56.1690625 17.94679688 55.25 17.9375 C54.36828125 17.92589844 53.4865625 17.91429687 52.578125 17.90234375 C50.16105727 17.99389935 48.25811107 18.14093601 46 19 C45.34 19.99 44.68 20.98 44 22 C43.67 21.67 43.34 21.34 43 21 C40.45071125 20.56720936 37.91312845 20.18848437 35.3515625 19.84375 C34.19906509 19.68295959 34.19906509 19.68295959 33.02328491 19.5189209 C30.55772173 19.17530627 28.09144728 18.83720584 25.625 18.5 C23.16576443 18.16233543 20.7067255 17.82343491 18.24813843 17.4810791 C16.71600156 17.2678544 15.18347676 17.05739521 13.65054321 16.84997559 C6.89291743 15.91183126 4.57562722 14.81274736 0.3125 9.4375 C-0.49574219 8.42558594 -1.30398438 7.41367187 -2.13671875 6.37109375 C-2.75160156 5.58863281 -3.36648438 4.80617188 -4 4 C-3.01 3.67 -2.02 3.34 -1 3 C-0.67 2.01 -0.34 1.02 0 0 Z " fill="#151515" transform="translate(654,297)"/>
<path d="M0 0 C1.32 0 2.64 0 4 0 C1.95865531 6.69938419 -1.4288098 12.35097982 -4.9375 18.375 C-5.57107422 19.49261719 -6.20464844 20.61023438 -6.85742188 21.76171875 C-7.47037109 22.81746094 -8.08332031 23.87320312 -8.71484375 24.9609375 C-9.27292725 25.92821777 -9.83101074 26.89549805 -10.40600586 27.89208984 C-10.93202393 28.5877002 -11.45804199 29.28331055 -12 30 C-16.08481881 30 -17.84704653 28.29880669 -21.1875 26 C-22.27417969 25.2575 -23.36085938 24.515 -24.48046875 23.75 C-25.31191406 23.1725 -26.14335938 22.595 -27 22 C-26.34 21.67 -25.68 21.34 -25 21 C-25.33 19.35 -25.66 17.7 -26 16 C-24.39528272 16.95741106 -22.79124671 17.91596405 -21.1875 18.875 C-20.29417969 19.40867187 -19.40085937 19.94234375 -18.48046875 20.4921875 C-16.62705276 21.61883092 -14.80470083 22.79686611 -13 24 C-12.66162109 22.78763672 -12.66162109 22.78763672 -12.31640625 21.55078125 C-10.66550765 17.09776395 -8.38278576 13.24452998 -5.9375 9.1875 C-5.47794922 8.41212891 -5.01839844 7.63675781 -4.54492188 6.83789062 C-1.16502638 1.16502638 -1.16502638 1.16502638 0 0 Z " fill="#F0EFED" transform="translate(713,321)"/>
<path d="M0 0 C0.12375 0.639375 0.2475 1.27875 0.375 1.9375 C0.58125 2.618125 0.7875 3.29875 1 4 C1.66 4.33 2.32 4.66 3 5 C2.39112263 9.02739372 1.08256945 12.09406452 -0.8125 15.6875 C-4.11787347 22.14084821 -6.77336504 28.68174738 -9.28515625 35.4765625 C-9.72730469 36.65992188 -10.16945313 37.84328125 -10.625 39.0625 C-11.02976562 40.16722656 -11.43453125 41.27195312 -11.8515625 42.41015625 C-13 45 -13 45 -15 46 C-14.37975018 41.60859814 -13.31467534 37.64206846 -11.85546875 33.45703125 C-11.42556641 32.21759766 -10.99566406 30.97816406 -10.55273438 29.70117188 C-10.09770411 28.40493112 -9.64262575 27.10870724 -9.1875 25.8125 C-8.74371683 24.53595454 -8.30035416 23.25926282 -7.85742188 21.98242188 C-5.29851664 14.63269853 -2.68350026 7.30513658 0 0 Z " fill="#D6D5D5" transform="translate(296,707)"/>
<path d="M0 0 C0.66 0.33 1.32 0.66 2 1 C-10.87 13.87 -23.74 26.74 -37 40 C-37.66 39.67 -38.32 39.34 -39 39 C-17.3108761 15.51414395 -17.3108761 15.51414395 -6.69140625 6.46875 C-4.33714698 4.42440477 -2.16985989 2.23766801 0 0 Z " fill="#292929" transform="translate(170,129)"/>
<path d="M0 0 C2 1.375 2 1.375 4 3 C4 3.66 4 4.32 4 5 C3.34 5 2.68 5 2 5 C1.79375 5.78375 1.5875 6.5675 1.375 7.375 C-0.17059101 11.44973993 -2.24114945 14.861619 -4.5625 18.53515625 C-5.97944202 20.96474977 -7.02359511 23.36652336 -8 26 C-8.33 25.01 -8.66 24.02 -9 23 C-9.66 22.67 -10.32 22.34 -11 22 C-7.7 16.06 -4.4 10.12 -1 4 C-3.97 3.67 -6.94 3.34 -10 3 C-10 2.67 -10 2.34 -10 2 C-2.25 1.875 -2.25 1.875 0 3 C0 2.01 0 1.02 0 0 Z " fill="#DCDADB" transform="translate(755,318)"/>
<path d="M0 0 C1.32 0 2.64 0 4 0 C2.48968084 5.26122171 0.09625809 9.67232586 -2.625 14.375 C-3.04523437 15.11105469 -3.46546875 15.84710938 -3.8984375 16.60546875 C-4.92752764 18.4063765 -5.96310756 20.20357318 -7 22 C-8.32 21.34 -9.64 20.68 -11 20 C-9.4095488 15.6366679 -7.25824078 11.75213615 -4.9375 7.75 C-4.57333984 7.11320312 -4.20917969 6.47640625 -3.83398438 5.8203125 C-1.14074248 1.14074248 -1.14074248 1.14074248 0 0 Z " fill="#D4D3D3" transform="translate(713,321)"/>
<path d="M0 0 C5 5 5 5 6.875 7.25 C9.77418306 9.63756252 12.32289786 9.71714599 16 10 C16 10.33 16 10.66 16 11 C15.04287109 11.07347656 15.04287109 11.07347656 14.06640625 11.1484375 C12.82697266 11.26058594 12.82697266 11.26058594 11.5625 11.375 C10.73878906 11.44460938 9.91507813 11.51421875 9.06640625 11.5859375 C8.04353516 11.79089844 8.04353516 11.79089844 7 12 C6.67 12.66 6.34 13.32 6 14 C6.71027344 14.04898437 7.42054688 14.09796875 8.15234375 14.1484375 C9.53099609 14.26058594 9.53099609 14.26058594 10.9375 14.375 C11.85402344 14.44460938 12.77054688 14.51421875 13.71484375 14.5859375 C14.84599609 14.79089844 14.84599609 14.79089844 16 15 C16.33 15.66 16.66 16.32 17 17 C15.56208484 16.85831863 14.1246763 16.71148957 12.6875 16.5625 C11.88699219 16.48128906 11.08648438 16.40007812 10.26171875 16.31640625 C5.06544841 15.58946688 3.49526864 13.45055611 0.3125 9.4375 C-0.49574219 8.42558594 -1.30398438 7.41367187 -2.13671875 6.37109375 C-2.75160156 5.58863281 -3.36648438 4.80617188 -4 4 C-3.01 3.67 -2.02 3.34 -1 3 C-0.67 2.01 -0.34 1.02 0 0 Z " fill="#272726" transform="translate(654,297)"/>
<path d="M0 0 C0.33 0 0.66 0 1 0 C1.33997574 3.64524519 1.67074937 7.29127169 2 10.9375 C2.14308594 12.46987305 2.14308594 12.46987305 2.2890625 14.03320312 C2.82746552 20.05177969 3.10081112 25.95763352 3 32 C2.01 31.67 1.02 31.34 0 31 C0 20.77 0 10.54 0 0 Z " fill="#DFDFDF" transform="translate(0,537)"/>
<path d="M0 0 C2.97 1.65 5.94 3.3 9 5 C9 6.65 9 8.3 9 10 C9.66 10.33 10.32 10.66 11 11 C10.67 11.66 10.34 12.32 10 13 C6.37 10.69 2.74 8.38 -1 6 C-0.34 5.67 0.32 5.34 1 5 C0.67 3.35 0.34 1.7 0 0 Z " fill="#E3E3E1" transform="translate(687,337)"/>
<path d="M0 0 C1.140625 1.58203125 1.140625 1.58203125 2 4 C1.171875 7.19921875 1.171875 7.19921875 -0.25 10.6875 C-0.70890625 11.84636719 -1.1678125 13.00523437 -1.640625 14.19921875 C-3 17 -3 17 -5 18 C-4.38388165 13.68068613 -3.35761422 9.74791225 -1.9375 5.625 C-1.57527344 4.56539062 -1.21304687 3.50578125 -0.83984375 2.4140625 C-0.56269531 1.61742187 -0.28554688 0.82078125 0 0 Z " fill="#9C9C9C" transform="translate(286,735)"/>
<path d="M0 0 C0.12375 0.639375 0.2475 1.27875 0.375 1.9375 C0.684375 2.9584375 0.684375 2.9584375 1 4 C1.66 4.33 2.32 4.66 3 5 C2.25 9.75 2.25 9.75 0 12 C-0.33 11.01 -0.66 10.02 -1 9 C-1.66 10.32 -2.32 11.64 -3 13 C-4 11 -4 11 -3.22265625 8.3984375 C-2.83980469 7.40070312 -2.45695312 6.40296875 -2.0625 5.375 C-1.68222656 4.37210938 -1.30195313 3.36921875 -0.91015625 2.3359375 C-0.60980469 1.56507813 -0.30945313 0.79421875 0 0 Z " fill="#D2D0D1" transform="translate(296,707)"/>
<path d="M0 0 C2 1.375 2 1.375 4 3 C4 3.66 4 4.32 4 5 C3.34 5 2.68 5 2 5 C1.67 5.66 1.34 6.32 1 7 C0.34 6.67 -0.32 6.34 -1 6 C-1 5.34 -1 4.68 -1 4 C-3.97 3.67 -6.94 3.34 -10 3 C-10 2.67 -10 2.34 -10 2 C-2.25 1.875 -2.25 1.875 0 3 C0 2.01 0 1.02 0 0 Z " fill="#ADACAD" transform="translate(755,318)"/>
<path d="M0 0 C0.6875 1.625 0.6875 1.625 1 4 C-0.4375 7.25 -0.4375 7.25 -2 10 C-3.32 9.34 -4.64 8.68 -6 8 C-5.34 6.35 -4.68 4.7 -4 3 C-3.01 3 -2.02 3 -1 3 C-0.67 2.01 -0.34 1.02 0 0 Z " fill="#E5E5E5" transform="translate(708,333)"/>
<path d="M0 0 C1.32 0 2.64 0 4 0 C3.25 2.9375 3.25 2.9375 2 6 C-0.125 6.875 -0.125 6.875 -2 7 C-1.125 1.125 -1.125 1.125 0 0 Z " fill="#EAEAEA" transform="translate(713,321)"/>
<path d="M0 0 C2.08559201 3.43509272 2.08559201 3.43509272 1.6875 6.0625 C1.3471875 7.0215625 1.3471875 7.0215625 1 8 C0.67 8.99 0.34 9.98 0 11 C-0.66 11 -1.32 11 -2 11 C-1.125 3.375 -1.125 3.375 0 0 Z " fill="#C8C7C8" transform="translate(289,726)"/>
<path d="M0 0 C0.66 0.99 1.32 1.98 2 3 C-0.31 4.98 -2.62 6.96 -5 9 C-5.66 8.67 -6.32 8.34 -7 8 C-4.69 5.36 -2.38 2.72 0 0 Z " fill="#C9C9C9" transform="translate(730,359)"/>
<path d="M0 0 C1.65 1.32 3.3 2.64 5 4 C4.67 5.32 4.34 6.64 4 8 C1.525 7.01 1.525 7.01 -1 6 C-0.34 5.67 0.32 5.34 1 5 C0.67 3.35 0.34 1.7 0 0 Z " fill="#D4D3D2" transform="translate(687,337)"/>
<path d="M0 0 C0.99 0 1.98 0 3 0 C2.25 4.75 2.25 4.75 0 7 C-0.66 6.67 -1.32 6.34 -2 6 C-1.34 4.02 -0.68 2.04 0 0 Z " fill="#DFDDDE" transform="translate(753,324)"/>
<path d="M0 0 C0.66 0.33 1.32 0.66 2 1 C1.34 3.31 0.68 5.62 0 8 C-0.99 8 -1.98 8 -3 8 C-2.37240135 5.07120629 -1.41377341 2.63904371 0 0 Z " fill="#F1EFF0" transform="translate(295,715)"/>
<path d="M0 0 C0.33 0.66 0.66 1.32 1 2 C1.66 2.33 2.32 2.66 3 3 C2.34 4.65 1.68 6.3 1 8 C0.67 7.01 0.34 6.02 0 5 C-0.66 4.67 -1.32 4.34 -2 4 C-1.34 2.68 -0.68 1.36 0 0 Z " fill="#C7C5C6" transform="translate(746,336)"/>
</svg>
